<?xml version="1.0" encoding="UTF-8" standalone="no"?>
<svg
   xmlns:dc="http://purl.org/dc/elements/1.1/"
   xmlns:cc="http://creativecommons.org/ns#"
   xmlns:rdf="http://www.w3.org/1999/02/22-rdf-syntax-ns#"
   xmlns:svg="http://www.w3.org/2000/svg"
   xmlns="http://www.w3.org/2000/svg"
   xmlns:sodipodi="http://sodipodi.sourceforge.net/DTD/sodipodi-0.dtd"
   xmlns:inkscape="http://www.inkscape.org/namespaces/inkscape"
   viewBox="0 0 412.3 512"
   version="1.1"
   id="svg4"
   sodipodi:docname="keybase.svg"
   inkscape:version="0.92.2 5c3e80d, 2017-08-06">
  <metadata
     id="metadata10">
    <rdf:RDF>
      <cc:Work
         rdf:about="">
        <dc:format>image/svg+xml</dc:format>
        <dc:type
           rdf:resource="http://purl.org/dc/dcmitype/StillImage" />
      </cc:Work>
    </rdf:RDF>
  </metadata>
  <defs
     id="defs8" />
  <sodipodi:namedview
     pagecolor="#ffffff"
     bordercolor="#666666"
     borderopacity="1"
     objecttolerance="10"
     gridtolerance="10"
     guidetolerance="10"
     inkscape:pageopacity="0"
     inkscape:pageshadow="2"
     inkscape:window-width="1680"
     inkscape:window-height="1005"
     id="namedview6"
     showgrid="false"
     inkscape:snap-global="true"
     inkscape:zoom="0.65186406"
     inkscape:cx="33.289985"
     inkscape:cy="212.15537"
     inkscape:window-x="0"
     inkscape:window-y="1"
     inkscape:window-maximized="1"
     inkscape:current-layer="svg4" />
  <path
     d="M177.2 430.9c0 9.8-8 17.8-17.8 17.8s-17.8-8-17.8-17.8 8-17.8 17.8-17.8c9.8-.1 17.8 7.9 17.8 17.8zM270 413c-9.8 0-17.8 8-17.8 17.8s8 17.8 17.8 17.8 17.8-8 17.8-17.8-8-17.8-17.8-17.8zm142.3-36c0 38.9-7.6 73.9-22.2 103h-27.3c23.5-38.7 30.5-94.8 22.4-134.3-16.1 29.5-52.1 38.6-85.9 28.8-127.8-37.5-192.5 19.7-234.6 50.3l18.9-59.3-39.9 42.3c4.8 26.7 15.7 51.3 31.2 72.3H46.1c-9.7-15.8-17.2-33-22.2-51.3L.1 454c0-74.9-5.5-147.6 61.5-215.2 20.2-20.4 43.7-36.2 69.1-46.7-6.8-13.5-9.5-29.2-7.8-46l-19.9-1.2c-17.9-1.1-31.6-16.5-30.6-34.4v-.1L74 84.2c1.1-17.1 15.4-30.6 32.5-30.6 1.3 0-.3-.1 28.2 1.7 13.9.8 21.5 9.8 22.8 11.4 7.1-10.4 14.5-20.5 24.6-34.5l20.6 12.1c-13.6 29-9.1 36.2-9 36.3 3.9 0 13.9-.5 32.4 5.7C246 92.9 262 107 271 126c.4.9 15.5 29 1.2 62.6 19 6.1 51.3 19.9 82.4 51.8 36.6 37.6 57.7 87.4 57.7 136.6zM128 122.3c3.2-10 7.7-19.7 13.1-29.4.1-2 2.2-13.1-7.8-13.8-28.5-1.8-26.3-1.6-26.7-1.6-4.6 0-8.3 3.5-8.6 8.1l-1.6 26.2c-.3 4.7 3.4 8.8 8.1 9.1l23.5 1.4zm25.8 61.8c5.6 9.4 14.1 16.1 22.3 20 0-21.2 28.5-41.9 52.8-17.5l8.4 10.3c20.8-18.8 19.4-45.3 12.1-60.9-13.8-29.1-46.9-32-54.3-31.7-10.3.4-19.7-5.4-23.7-15.3-13.7 21.2-37.2 62.5-17.6 95.1zm82.9 68.4L217 268.6c-1.9 1.6-2.2 4.4-.6 6.3l8.9 10.9c1 1.2 3.8 2.7 6.3.6l19.6-16 5.5 6.8c4.9 6 13.8-1.4 9-7.3-63.6-78.3-41.5-51.1-55.3-68.1-4.7-6-13.9 1.4-9 7.3 1.9 2.3 18.4 22.6 19.8 24.3l-9.6 7.9c-4.6 3.8 2.6 13.3 7.4 9.4l9.7-8 8 9.8zm118.4 25.7c-16.9-23.7-42.6-46.7-73.4-60.4-7.9-3.5-15-6.1-22.9-8.6-2 2.2-4.1 4.3-6.4 6.2l31.9 39.2c10.4 12.7 8.5 31.5-4.2 41.9-1.3 1.1-13.1 10.7-29 4.9-2.9 2.3-10.1 9.9-22.2 9.9-8.6 0-16.6-3.8-22.1-10.5l-8.9-10.9c-6.3-7.8-7.9-17.9-5-26.8-8.2-9.9-8.3-21.3-4.6-30-7.2-1.3-26.7-6.2-42.7-21.4-55.8 20.7-88 64.4-101.3 91.2-14.9 30.2-18.8 60.9-19.9 90.2 8.2-8.7-3.9 4.1 114-120.9l-29.9 93.6c57.8-31.1 124-36 197.4-14.4 23.6 6.9 45.1 1.6 56-13.9 11.1-15.6 8.5-37.7-6.8-59.3zM110.6 107.3l15.6 1 1-15.6-15.6-1-1 15.6z"
     id="path2"
     style="stroke:#5b929d;stroke-opacity:1;fill:#364c6e;fill-opacity:1" />
  <path
     style="opacity:1;fill:#ffffff;fill-opacity:1;fill-rule:nonzero;stroke:#9cb2ca;stroke-width:1.53406215;stroke-opacity:1"
     d="M 44.294936,474.95783 C 40.36261,468.94866 30.025779,445.77361 27.16545,436.55373 L 24.412612,427.68032 12.436833,439.58587 0.46105399,451.4914 0.48380367,429.28349 C 0.52961169,384.56634 4.3395129,349.16979 11.923833,322.99789 26.874882,271.40494 69.033379,222.6082 119.73439,198.21155 c 6.11707,-2.94345 11.12195,-5.6705 11.12195,-6.06011 0,-0.38961 -1.43441,-4.96637 -3.18758,-10.17057 -1.75317,-5.2042 -3.58117,-15.53734 -4.06223,-22.96254 -0.48106,-7.42519 -0.94505,-13.51906 -1.03109,-13.54192 -0.0861,-0.0229 -6.66845,-0.67129 -14.62757,-1.44095 -16.675836,-1.61259 -24.31469,-5.68037 -30.465073,-16.223 -3.33412,-5.71516 -3.508672,-7.33609 -2.966677,-27.54932 0.618548,-23.068183 2.513559,-29.716442 10.552577,-37.021563 8.612954,-7.82666 12.762666,-8.747758 34.675623,-7.696831 20.83413,0.999187 28.97221,3.228697 34.0299,9.322843 1.10153,1.327267 2.5435,2.413215 3.20439,2.413215 0.66087,0 6.20186,-7.075862 12.31329,-15.724138 6.11143,-8.648275 11.59415,-16.274955 12.1838,-16.948176 0.58966,-0.673222 5.354,1.326662 10.58739,4.444185 7.19921,4.288542 9.25734,6.266784 8.45556,8.127319 -4.85967,11.276939 -8.29982,22.754142 -8.29982,27.690279 v 5.91584 l 9.58788,1.089309 c 14.7668,1.677699 32.33014,7.845201 42.9522,15.082987 11.31648,7.710971 22.44705,21.671961 27.31069,34.255621 4.83041,12.49771 5.84219,34.12238 2.22223,47.49561 -1.47336,5.443 -2.42141,10.13188 -2.10679,10.41971 0.31464,0.28784 6.09467,2.71074 12.84455,5.38422 61.00011,24.16093 109.01564,81.99607 122.57543,147.64323 8.0792,39.1139 1.4324,95.86751 -15.28374,130.49993 l -2.77668,5.75274 h -11.98837 c -6.59362,0 -11.98838,-0.24961 -11.98838,-0.55469 0,-0.30506 2.71227,-6.34543 6.02727,-13.42304 11.68498,-24.94766 17.16932,-52.26874 17.00008,-84.6884 -0.11521,-22.0663 -1.40562,-34.30724 -3.55158,-33.69059 -0.65012,0.1868 -3.41964,3.27335 -6.15451,6.859 -6.61173,8.66856 -15.87342,15.54955 -26.69474,19.83293 -13.40256,5.30507 -38.80608,5.04547 -58.72744,-0.60021 -24.3506,-6.90088 -48.47095,-10.32373 -72.75008,-10.32373 -51.55424,0 -91.74225,14.3282 -139.732687,49.81881 -6.474414,4.78805 -12.116825,8.36039 -12.538692,7.93853 -0.421869,-0.42187 2.155152,-9.96563 5.726709,-21.20835 10.269236,-32.32604 10.661329,-33.73863 9.218648,-33.21225 -0.751332,0.27412 -10.053302,9.74439 -20.671046,21.04502 -14.003441,14.90409 -19.304987,21.59129 -19.304987,24.3507 0,10.02001 14.931825,46.91641 24.822639,61.3365 l 4.471937,6.51977 H 59.63151 c -11.87027,0 -13.286428,-0.31872 -15.336574,-3.45164 z m 37.840411,-141.7307 c 28.838503,-30.60565 52.629963,-55.45032 52.869903,-55.21038 0.23994,0.23994 -5.81506,19.95718 -13.45556,43.8161 -7.64049,23.85893 -13.5743,43.69736 -13.18624,44.08542 0.38805,0.38805 4.99823,-1.4614 10.24483,-4.10986 13.72657,-6.92916 42.76471,-16.19198 60.57102,-19.32144 10.7188,-1.88383 23.19772,-2.68221 41.41968,-2.64995 29.02619,0.0514 43.77991,2.04041 78.11262,10.53084 24.28425,6.00546 27.38578,6.23933 39.81463,3.00201 12.31785,-3.20838 20.87745,-9.52651 26.27636,-19.39542 8.24727,-15.07559 5.50094,-34.21134 -7.80441,-54.37916 -18.73453,-28.39723 -55.61919,-56.68187 -88.80542,-68.09962 -8.33158,-2.86648 -8.93284,-2.88405 -12.40258,-0.36222 -2.00559,1.45765 -3.6682,3.23883 -3.69473,3.95816 -0.0265,0.71932 6.6825,9.57284 14.90891,19.67448 20.40867,25.06089 19.97148,24.4233 21.98446,32.06153 2.39129,9.07371 -0.11904,18.11171 -7.21109,25.96169 -6.42264,7.10909 -13.64309,9.81252 -23.64176,8.85177 -6.22281,-0.59793 -8.36435,-0.0328 -13.85856,3.65717 -5.14465,3.45517 -8.22389,4.36438 -14.78109,4.36438 -10.4242,0 -15.07099,-2.4109 -24.2704,-12.59224 -9.46444,-10.47469 -13.61366,-19.64668 -12.5329,-27.70442 0.58888,-4.39044 -0.0635,-7.78588 -2.33207,-12.13829 -2.55987,-4.91124 -3.00116,-7.89275 -2.35661,-15.92249 0.7121,-8.87107 0.50373,-9.87973 -2.04087,-9.87973 -5.34289,0 -20.02727,-6.43377 -30.09848,-13.18726 -5.54087,-3.71555 -10.8458,-6.75807 -11.78874,-6.76115 -3.80833,-0.0124 -33.08401,15.82838 -43.13412,23.33947 -23.872042,17.84108 -49.26171,48.60044 -59.679702,72.30141 -9.271598,21.09291 -15.051774,45.95726 -17.174446,73.87859 l -1.049621,13.80656 3.331669,-2.96467 c 1.832415,-1.63055 26.926808,-28.00564 55.765317,-58.61128 z M 240.5141,280.4765 c 5.04717,-4.19726 9.58655,-7.63136 10.08751,-7.63136 0.50095,0 2.53214,1.72582 4.51377,3.83515 5.55562,5.91369 12.27249,4.27263 12.27249,-2.99838 0,-1.80569 -12.21627,-18.21811 -28.60334,-38.42826 -25.75968,-31.76937 -29.05935,-35.27647 -33.19012,-35.27647 -3.34955,0 -4.92965,0.9269 -5.85794,3.43629 -1.06104,2.86826 0.48353,5.61187 9.34406,16.59781 l 10.61524,13.16154 -5.30112,4.65445 c -6.09035,5.3474 -6.52977,7.71018 -2.23302,12.00693 4.04741,4.04741 5.07744,3.90404 11.31819,-1.5754 l 5.2887,-4.64355 3.19959,4.49344 3.19961,4.49342 -9.96898,8.08828 c -6.16596,5.00272 -9.96898,9.24257 -9.96898,11.11407 0,4.01294 10.24539,16.39184 13.52575,16.34235 1.42005,-0.0215 6.71141,-3.47307 11.75859,-7.67031 z m -53.89917,-96.11486 c 13.23302,-12.12716 32.19943,-9.13543 45.27715,7.14195 l 5.15686,6.41856 4.48297,-4.29496 c 2.46563,-2.36222 6.358,-8.11279 8.64971,-12.77904 3.59582,-7.32166 4.16672,-10.37576 4.16672,-22.29065 0,-11.67628 -0.61474,-15.10839 -3.98423,-22.2439 -8.59715,-18.20599 -25.46246,-29.32525 -48.98917,-32.29842 -16.5313,-2.08913 -20.51199,-3.67804 -26.05175,-10.398726 -2.47303,-3.000219 -4.75727,-5.148225 -5.07608,-4.773346 -0.31881,0.374878 -3.12338,5.074369 -6.23235,10.443312 -21.60417,37.30845 -24.04336,69.30057 -6.93104,90.90665 2.79367,3.52727 8.15634,8.36457 11.91706,10.74954 l 6.83767,4.33632 2.70957,-8.00381 c 1.64703,-4.86522 4.81039,-9.9291 8.06691,-12.91348 z M 134.52372,109.084 c 7.19477,-16.264615 8.54052,-24.685106 4.5129,-28.237682 -4.09205,-3.609415 -33.82148,-5.454889 -37.99178,-2.358365 -3.173145,2.356119 -5.102613,12.811803 -5.342482,28.950637 -0.113858,7.66081 0.357251,9.09236 3.912589,11.88899 3.335953,2.62405 6.219413,3.17946 16.506513,3.17946 h 12.46448 z"
     id="path812"
     inkscape:connector-curvature="0" />
  <path
     style="opacity:1;fill:#ffffff;fill-opacity:1;fill-rule:nonzero;stroke:#9cb2ca;stroke-width:1.53406215;stroke-opacity:1"
     d="m 148.34465,442.51241 c -4.20316,-4.20316 -5.21581,-6.41409 -5.21581,-11.38776 0,-12.59139 13.02597,-20.74231 23.84071,-14.91819 15.60661,8.40471 9.36809,31.52176 -8.50668,31.52176 -3.52987,0 -6.36269,-1.46027 -10.11822,-5.21581 z"
     id="path814"
     inkscape:connector-curvature="0" />
  <path
     style="opacity:1;fill:#ffffff;fill-opacity:1;fill-rule:nonzero;stroke:#9cb2ca;stroke-width:1.53406215;stroke-opacity:1"
     d="m 263.38108,446.22474 c -5.44853,-2.20146 -9.79977,-9.1076 -9.79977,-15.55388 0,-12.76358 14.65884,-20.64921 25.61198,-13.77782 16.78262,10.52849 2.62931,36.78291 -15.81221,29.3317 z"
     id="path816"
     inkscape:connector-curvature="0" />
  <path
     style="opacity:1;fill:#ffffff;fill-opacity:1;fill-rule:nonzero;stroke:#9cb2ca;stroke-width:1.53406215;stroke-opacity:1"
     d="m 112.44759,100.26314 v -6.903279 h 6.90328 c 6.60461,0 6.90328,0.193686 6.90328,4.476719 0,7.71286 -1.35781,9.32984 -7.83444,9.32984 h -5.97212 z"
     id="path818"
     inkscape:connector-curvature="0" />
</svg>
