<?xml version="1.0" encoding="UTF-8" standalone="no"?>
<svg
   xmlns:dc="http://purl.org/dc/elements/1.1/"
   xmlns:cc="http://creativecommons.org/ns#"
   xmlns:rdf="http://www.w3.org/1999/02/22-rdf-syntax-ns#"
   xmlns:svg="http://www.w3.org/2000/svg"
   xmlns="http://www.w3.org/2000/svg"
   xmlns:sodipodi="http://sodipodi.sourceforge.net/DTD/sodipodi-0.dtd"
   xmlns:inkscape="http://www.inkscape.org/namespaces/inkscape"
   viewBox="0 0 512 512"
   version="1.1"
   id="svg4"
   sodipodi:docname="twitter.svg"
   inkscape:version="0.92.2 5c3e80d, 2017-08-06">
  <metadata
     id="metadata10">
    <rdf:RDF>
      <cc:Work
         rdf:about="">
        <dc:format>image/svg+xml</dc:format>
        <dc:type
           rdf:resource="http://purl.org/dc/dcmitype/StillImage" />
      </cc:Work>
    </rdf:RDF>
  </metadata>
  <defs
     id="defs8" />
  <sodipodi:namedview
     pagecolor="#ffffff"
     bordercolor="#666666"
     borderopacity="1"
     objecttolerance="10"
     gridtolerance="10"
     guidetolerance="10"
     inkscape:pageopacity="0"
     inkscape:pageshadow="2"
     inkscape:window-width="1680"
     inkscape:window-height="1005"
     id="namedview6"
     showgrid="false"
     inkscape:zoom="0.4609375"
     inkscape:cx="-260.33898"
     inkscape:cy="-91.118644"
     inkscape:window-x="0"
     inkscape:window-y="1"
     inkscape:window-maximized="1"
     inkscape:current-layer="svg4" />
  <path
     d="M459.37 151.716c.325 4.548.325 9.097.325 13.645 0 138.72-105.583 298.558-298.558 298.558-59.452 0-114.68-17.219-161.137-47.106 8.447.974 16.568 1.299 25.34 1.299 49.055 0 94.213-16.568 130.274-44.832-46.132-.975-84.792-31.188-98.112-72.772 6.498.974 12.995 1.624 19.818 1.624 9.421 0 18.843-1.3 27.614-3.573-48.081-9.747-84.143-51.98-84.143-102.985v-1.299c13.969 7.797 30.214 12.67 47.431 13.319-28.264-18.843-46.781-51.005-46.781-87.391 0-19.492 5.197-37.36 14.294-52.954 51.655 63.675 129.3 105.258 216.365 109.807-1.624-7.797-2.599-15.918-2.599-24.04 0-57.828 46.782-104.934 104.934-104.934 30.213 0 57.502 12.67 76.67 33.137 23.715-4.548 46.456-13.32 66.599-25.34-7.798 24.366-24.366 44.833-46.132 57.827 21.117-2.273 41.584-8.122 60.426-16.243-14.292 20.791-32.161 39.308-52.628 54.253z"
     id="path2"
     style="fill:#364c6e;fill-opacity:1;stroke:#5b929d;stroke-opacity:1" />
  <path
     style="opacity:1;fill:#ffffff;fill-opacity:1;fill-rule:nonzero;stroke:#9cb2ca;stroke-width:2.16949153;stroke-opacity:1"
     d="M 123.87797,460.63232 C 88.013206,455.67512 45.451633,441.82741 18.39718,426.31339 L 6.7254237,419.62038 21.911864,419.58719 C 66.022721,419.49086 109.88354,406.1496 145.50892,381.9922 l 12.953,-8.78336 -16.78487,-2.83507 C 110.3461,365.0818 80.833198,344.39003 66.643248,317.76696 c -3.720906,-6.98114 -6.765282,-13.28852 -6.765282,-14.01641 0,-0.72788 7.2,-1.32343 16,-1.32343 18.497918,0 30.000384,-1.87019 28.311324,-4.60312 -0.64766,-1.04795 -2.94132,-1.90536 -5.097027,-1.90536 -8.200409,0 -34.199153,-15.27808 -45.600777,-26.79714 -14.468367,-14.61741 -20.666949,-24.63236 -26.188756,-42.31274 -3.733952,-11.95581 -5.802013,-28.51723 -3.561009,-28.51723 0.409811,0 6.023371,1.81029 12.474577,4.02287 11.070217,3.79678 32.339634,7.96827 32.339634,6.34265 0,-0.41128 -6.650261,-7.54907 -14.778359,-15.86174 C 30.363798,168.84984 21.461965,145.23974 23.572711,112.68374 24.474333,98.777207 30.890763,74.69837 34.715902,70.866866 34.99561,70.586691 44.997808,79.941363 56.943006,91.655023 107.78171,141.50829 169.32467,170.10584 241.45911,177.39524 l 11.27607,1.13948 -1.24544,-17.78261 c -2.21282,-31.59506 7.81377,-58.16466 30.49918,-80.820258 31.23174,-31.190659 76.56741,-39.124199 116.27173,-20.347027 7.35987,3.480665 17.56228,9.754259 22.67204,13.941321 5.10976,4.18706 11.2837,7.612837 13.71986,7.612837 7.07367,0 33.0709,-8.619485 46.64914,-15.466708 15.14349,-7.636541 15.83751,-5.521241 4.07451,12.418494 -8.16714,12.455715 -19.59871,24.481331 -30.65078,32.243561 -5.39856,3.7916 -5.36838,3.804 6.50848,2.67418 6.56271,-0.62429 19.4983,-3.55342 28.74576,-6.50917 9.24746,-2.95575 16.81356,-4.42151 16.81356,-3.25723 0,1.16428 -10.59115,12.6355 -23.5359,25.49161 l -23.53588,23.37474 -1.52418,24.71865 c -4.92368,79.85181 -36.85569,150.67302 -92.08689,204.23722 -54.32578,52.6861 -117.74429,78.75966 -196.67308,80.85914 -16.70509,0.44436 -37.20678,-0.13668 -45.55932,-1.29115 z"
     id="path812"
     inkscape:connector-curvature="0" />
</svg>
